ffmpeg version 7.1.1 Copyright (c) 2000-2025 the FFmpeg developers
  built with Apple clang version 17.0.0 (clang-1700.0.13.3)
  configuration: --prefix=/opt/homebrew/Cellar/ffmpeg/7.1.1_5 --enable-shared --enable-pthreads --enable-version3 --cc=clang --host-cflags= --host-ldflags='-Wl,-ld_classic' --enable-ffplay --enable-gnutls --enable-gpl --enable-libaom --enable-libaribb24 --enable-libbluray --enable-libdav1d --enable-libharfbuzz --enable-libjxl --enable-libmp3lame --enable-libopus --enable-librav1e --enable-librist --enable-librubberband --enable-libsnappy --enable-libsrt --enable-libssh --enable-libsvtav1 --enable-libtesseract --enable-libtheora --enable-libvidstab --enable-libvmaf --enable-libvorbis --enable-libvpx --enable-libwebp --enable-libx264 --enable-libx265 --enable-libxml2 --enable-libxvid --enable-lzma --enable-libfontconfig --enable-libfreetype --enable-frei0r --enable-libass --enable-libopencore-amrnb --enable-libopencore-amrwb --enable-libopenjpeg --enable-libspeex --enable-libsoxr --enable-libzmq --enable-libzimg --disable-libjack --disable-indev=jack --enable-videotoolbox --enable-audiotoolbox --enable-neon
  libavutil      59. 39.100 / 59. 39.100
  libavcodec     61. 19.101 / 61. 19.101
  libavformat    61.  7.100 / 61.  7.100
  libavdevice    61.  3.100 / 61.  3.100
  libavfilter    10.  4.100 / 10.  4.100
  libswscale      8.  3.100 /  8.  3.100
  libswresample   5.  3.100 /  5.  3.100
  libpostproc    58.  3.100 / 58.  3.100
Input #0, matroska,webm, from 'uploads/b614f4f26d8958ca1707daab9c0820e9':
  Metadata:
    encoder         : WebKit
  Duration: N/A, start: 0.000000, bitrate: N/A
  Stream #0:0(eng): Video: vp9 (Profile 0), yuv420p(tv), 5180x2881, SAR 1:1 DAR 5180:2881, 1k tbr, 1k tbn (default)
Stream mapping:
  Stream #0:0 -> #0:0 (vp9 (native) -> prores (prores_ks))
Press [q] to stop, [?] for help
Output #0, mov, to 'uploads/converted-1756155390010.mov':
  Metadata:
    encoder         : Lavf61.7.100
  Stream #0:0(eng): Video: prores (4444) (ap4h / 0x68347061), yuv444p10le(tv, progressive), 5180x2881 [SAR 1:1 DAR 5180:2881], q=2-31, 200 kb/s, 1k fps, 16k tbn (default)
      Metadata:
        encoder         : Lavc61.19.101 prores_ks
frame=    0 fps=0.0 q=0.0 size=       0KiB time=N/A bitrate=N/A speed=N/A    frame=    2 fps=2.0 q=-0.0 size=     512KiB time=00:00:00.02 bitrate=199742.5kbits/s speed=0.0209x    frame=   14 fps=9.3 q=-0.0 size=    9984KiB time=00:00:00.26 bitrate=312172.6kbits/s speed=0.174x    frame=   27 fps= 13 q=-0.0 size=   20224KiB time=00:00:00.48 bitrate=345156.9kbits/s speed=0.238x    frame=   28 fps= 11 q=-0.0 size=   20992KiB time=00:00:00.49 bitrate=346707.2kbits/s speed=0.196x    frame=   42 fps= 14 q=-0.0 size=   31744KiB time=00:00:00.74 bitrate=348122.0kbits/s speed=0.247x    frame=   50 fps= 14 q=-0.0 size=   37120KiB time=00:00:00.87 bitrate=345946.9kbits/s speed=0.249x    frame=   58 fps= 14 q=-0.0 size=   41728KiB time=00:00:01.01 bitrate=337449.2kbits/s speed=0.25x    frame=   65 fps= 14 q=-0.0 size=   46336KiB time=00:00:01.14 bitrate=331225.8kbits/s speed=0.251x    frame=   79 fps= 16 q=-0.0 size=   55296KiB time=00:00:01.38 bitrate=328250.1kbits/s speed=0.272x    frame=   85 fps= 15 q=-0.0 size=   59136KiB time=00:00:01.48 bitrate=327104.9kbits/s speed=0.265x    frame=   95 fps= 16 q=-0.0 size=   65792KiB time=00:00:01.66 bitrate=324094.0kbits/s speed=0.273x    frame=  105 fps= 16 q=-0.0 size=   72960KiB time=00:00:01.82 bitrate=326784.4kbits/s speed=0.277x    frame=  113 fps= 16 q=-0.0 size=   78336KiB time=00:00:01.96 bitrate=326912.3kbits/s speed=0.277x    frame=  124 fps= 16 q=-0.0 size=   86016KiB time=00:00:02.16 bitrate=325771.3kbits/s speed=0.285x    frame=  130 fps= 16 q=-0.0 size=   89856KiB time=00:00:02.26 bitrate=325276.5kbits/s speed=0.279x    frame=  141 fps= 16 q=-0.0 size=   97024KiB time=00:00:02.44 bitrate=324947.2kbits/s speed=0.284x    frame=  154 fps= 17 q=-0.0 size=  105216KiB time=00:00:02.67 bitrate=321735.6kbits/s speed=0.294x    frame=  158 fps= 16 q=-0.0 size=  107520KiB time=00:00:02.74 bitrate=320759.0kbits/s speed=0.285x    frame=  169 fps= 17 q=-0.0 size=  114432KiB time=00:00:02.92 bitrate=320159.6kbits/s speed=0.289x    frame=  174 fps= 16 q=-0.0 size=  117760KiB time=00:00:03.02 bitrate=318484.7kbits/s speed=0.285x    frame=  187 fps= 17 q=-0.0 size=  126464KiB time=00:00:03.24 bitrate=319258.4kbits/s speed=0.291x    frame=  197 fps= 17 q=-0.0 size=  133120KiB time=00:00:03.42 bitrate=318028.4kbits/s speed=0.294x    frame=  203 fps= 17 q=-0.0 size=  137216KiB time=00:00:03.53 bitrate=318434.5kbits/s speed=0.29x    frame=  216 fps= 17 q=-0.0 size=  145920KiB time=00:00:03.76 bitrate=317665.9kbits/s speed=0.297x    frame=  225 fps= 17 q=-0.0 size=  151808KiB time=00:00:03.91 bitrate=317815.3kbits/s speed=0.297x    frame=  232 fps= 17 q=-0.0 size=  156416KiB time=00:00:04.04 bitrate=316698.0kbits/s speed=0.296x    frame=  242 fps= 17 q=-0.0 size=  162560KiB time=00:00:04.21 bitrate=316091.1kbits/s speed=0.297x    frame=  249 fps= 17 q=-0.0 size=  166656KiB time=00:00:04.34 bitrate=314210.9kbits/s speed=0.296x    frame=  260 fps= 17 q=-0.0 size=  173568KiB time=00:00:04.52 bitrate=313947.7kbits/s speed=0.298x    frame=  274 fps= 17 q=-0.0 size=  182528KiB time=00:00:04.76 bitrate=313934.4kbits/s speed=0.304x    [out#0/mov @ 0x14e006750] video:186070KiB audio:0KiB subtitle:0KiB other streams:0KiB global headers:0KiB muxing overhead: 0.002402%
frame=  278 fps= 18 q=-0.0 Lsize=  186074KiB time=00:00:04.84 bitrate=314552.3kbits/s speed=0.306x    
